HIERARCHY
ROOT Hips
{
	OFFSET 0.00000 0.00000 0.00000
	CHANNELS 6 Xposition Yposition Zposition Zrotation Yrotation Xrotation 
	JOINT RightUpLegDummy
	{
		OFFSET 0 0 0
		CHANNELS 3 Zrotation Yrotation Xrotation
		JOINT RightUpLeg
		{
			OFFSET -3.52197 -3.41223 0.04002
			CHANNELS 3 Zrotation Yrotation Xrotation
			JOINT RightLeg
			{
				OFFSET 0.00006 -17.42390 1.60435
				CHANNELS 3 Zrotation Yrotation Xrotation
				JOINT RightFoot
				{
					OFFSET 0.06153 -16.50078 -1.63901
					CHANNELS 3 Zrotation Yrotation Xrotation
					JOINT RightToes
					{
						OFFSET 0.00298 -1.73825 3.34613
						CHANNELS 3 Zrotation Yrotation Xrotation
						End Site
						{
							OFFSET 0.00480 -0.05416 3.85043
						}
					}
				}
			}
		}
	}
	JOINT SpineDummy
	{
		OFFSET 0 0 0
		CHANNELS 3 Zrotation Yrotation Xrotation
		JOINT Spine
		{
			OFFSET 0.00000 4.68130 0.00000
			CHANNELS 3 Zrotation Yrotation Xrotation
			JOINT Spine1
			{
				OFFSET -0.00000 10.10138 0.05002
				CHANNELS 3 Zrotation Yrotation Xrotation
				JOINT HEadDummy
				{
					OFFSET 0 0 0
					CHANNELS 3 Zrotation Yrotation Xrotation
					JOINT Head
					{
						OFFSET -0.00000 3.43865 0.00438
						CHANNELS 3 Zrotation Yrotation Xrotation
						End Site
						{
							OFFSET -0.11417 5.02924 0.98962
						}
					}
				}
				JOINT LeftShoulder1Dummy
				{
					OFFSET 0 0 0
					CHANNELS 3 Zrotation Yrotation Xrotation
					JOINT LeftShoulder1
					{
						OFFSET 3.53937 -0.14262 -0.08662
						CHANNELS 3 Zrotation Yrotation Xrotation
						JOINT LeftArm
						{
							OFFSET 4.04833 -0.00133 0.12681
							CHANNELS 3 Zrotation Yrotation Xrotation
							JOINT LeftForeArm
							{
								OFFSET 10.33880 -0.01036 -0.55515
								CHANNELS 3 Zrotation Yrotation Xrotation
								JOINT LeftHand
								{
									OFFSET 8.69677 0.07543 0.40060
									CHANNELS 3 Zrotation Yrotation Xrotation
									End Site
									{
										OFFSET 5.28377 -0.21905 0.59205
									}
								}
							}
						}
					}
				}
				JOINT RightShoulderDummy
				{
					OFFSET 0 0 0
					CHANNELS 3 Zrotation Yrotation Xrotation
					JOINT RightShoulder
					{
						OFFSET -3.53937 -0.14262 -0.08660
						CHANNELS 3 Zrotation Yrotation Xrotation
						JOINT RightArm
						{
							OFFSET -4.04833 -0.00133 0.12683
							CHANNELS 3 Zrotation Yrotation Xrotation
							JOINT RightForeArm
							{
								OFFSET -10.37987 -0.01039 -0.55511
								CHANNELS 3 Zrotation Yrotation Xrotation
								JOINT RightHand
								{
									OFFSET -8.67398 0.07538 0.40058
									CHANNELS 3 Zrotation Yrotation Xrotation
									End Site
									{
										OFFSET -5.24810 -0.21916 0.59204
									}
								}
							}
						}
					}
				}
			}
		}
	}
	JOINT LeftUpLegDummy
	{
		OFFSET 0 0 0
		CHANNELS 3 Zrotation Yrotation Xrotation
		JOINT LeftUpLeg
		{
			OFFSET 3.52197 -3.41223 0.04002
			CHANNELS 3 Zrotation Yrotation Xrotation
			JOINT LeftLeg
			{
				OFFSET -0.00012 -17.42399 1.60337
				CHANNELS 3 Zrotation Yrotation Xrotation
				JOINT LeftFoot
				{
					OFFSET -0.09972 -16.50070 -1.63802
					CHANNELS 3 Zrotation Yrotation Xrotation
					JOINT LeftToes
					{
						OFFSET -0.01575 -1.73823 3.34611
						CHANNELS 3 Zrotation Yrotation Xrotation
						End Site
						{
							OFFSET 0.03150 -0.01868 3.85031
						}
					}
				}
			}
		}
	}
}
MOTION
Frames: 8
Frame Time: 0.033333
0.6448 40.1178 -3.4569 -1.8739 -8.7200 -1.0513 0.0000 0.0000 0.0000 -0.8816 -2.5176 0.6535 -1.4452 -3.2330 2.9421 2.0216 -0.1632 -1.9561 0.0000 -0.0000 0.0000 0.0000 0.0000 0.0000 0.5651 -0.3882 -0.5785 2.5972 -1.0231 3.2748 -0.0000 0.0000 -0.0000 0.2003 -0.1498 -6.7975 -0.0000 0.0000 -0.0000 -34.0011 -2.7063 2.4859 -45.0160 -17.5883 -15.6785 -11.0550 5.0733 49.7092 15.4625 -4.0530 -1.2284 -0.0000 0.0000 -0.0000 34.7416 5.1507 3.5276 40.2466 5.6042 -16.5107 10.7635 -0.0703 23.7416 -10.5353 2.5245 -0.6975 0.0000 0.0000 0.0000 5.0853 3.9635 2.0091 4.1452 17.4190 6.9893 -1.5200 0.1352 -4.4451 0.0000 0.0000 -0.0000
0.6342 40.1178 -3.4649 -1.8389 -8.7065 -1.0342 0.0000 0.0000 0.0000 -0.8973 -2.5176 0.5915 -1.4454 -3.2301 3.0040 2.0439 -0.1645 -1.9735 0.0000 -0.0000 0.0000 0.0000 0.0000 0.0000 0.4814 -0.3882 -0.5842 2.6463 -1.0231 3.2983 -0.0000 0.0000 -0.0000 0.2146 -0.0955 -6.9520 -0.0000 0.0000 -0.0000 -34.0155 -2.7479 2.5034 -44.8738 -17.4263 -15.8892 -10.9578 5.0687 49.9037 15.5939 -3.9585 -1.2272 -0.0000 0.0000 -0.0000 34.7947 5.1633 3.5375 40.2739 5.6329 -16.3832 10.7906 -0.0176 23.9613 -10.6840 2.5128 -0.7068 0.0000 0.0000 0.0000 5.0627 3.9500 1.9926 4.1303 17.4178 6.9409 -1.5203 0.1353 -4.4010 0.0000 0.0000 -0.0000
0.6181 40.1178 -3.4803 -1.7919 -8.7277 -1.0117 0.0000 0.0000 0.0000 -0.9191 -2.5251 0.4929 -1.4408 -3.1982 3.0942 2.0418 -0.1643 -2.0008 0.0000 -0.0000 0.0000 0.0000 0.0000 0.0000 0.4098 -0.3882 -0.6168 2.6876 -1.0231 3.3920 -0.0000 0.0000 -0.0000 0.2133 0.0024 -7.1952 -0.0000 0.0000 -0.0000 -34.0699 -2.7695 2.5155 -44.5515 -17.1979 -16.3170 -10.7584 5.0593 50.2992 15.7594 -3.8990 -1.2331 -0.0000 0.0000 -0.0000 34.8649 5.1852 3.5526 40.3249 5.7359 -16.1744 10.8301 0.1199 24.2606 -10.7094 2.6837 -0.7229 0.0000 0.0000 0.0000 5.0247 3.9164 1.9734 4.1405 17.4711 6.8770 -1.5561 0.1376 -4.3403 0.0000 0.0000 -0.0000
0.6061 40.1178 -3.4972 -1.7775 -8.7479 -1.0162 0.0000 0.0000 0.0000 -0.9207 -2.5362 0.4437 -1.4199 -3.1798 3.1474 2.0179 -0.1627 -2.0216 0.0000 -0.0000 0.0000 0.0000 0.0000 0.0000 0.4364 -0.3909 -0.6352 2.6640 -1.0231 3.5178 -0.0000 0.0000 -0.0000 0.1006 -0.0141 -7.2892 -0.0000 0.0000 -0.0000 -34.0894 -2.7440 2.5065 -44.2315 -17.0617 -16.8574 -10.4876 5.0480 50.7789 15.8707 -3.9554 -1.2494 -0.0000 0.0000 -0.0000 34.9155 5.2051 3.5652 40.3910 5.8797 -15.9248 10.8946 0.4117 24.2261 -10.8110 3.0470 -0.7613 0.0000 0.0000 0.0000 5.0097 3.8817 1.9668 4.1842 17.5216 6.8548 -1.6130 0.1412 -4.3039 0.0000 0.0000 -0.0000
0.5975 40.1178 -3.5146 -1.7933 -8.7239 -1.0307 0.0000 0.0000 0.0000 -0.8935 -2.5314 0.4306 -1.4090 -3.2151 3.1672 2.0000 -0.1615 -2.0278 0.0000 -0.0000 0.0000 0.0000 0.0000 0.0000 0.5231 -0.4063 -0.6119 2.5800 -1.0227 3.6000 -0.0000 0.0000 -0.0000 -0.0803 -0.1189 -7.2525 -0.0000 0.0000 -0.0000 -33.9791 -2.7002 2.4821 -44.0714 -17.0017 -17.4080 -10.1784 5.0359 51.2950 15.8817 -3.9749 -1.2529 -0.0000 0.0000 -0.0000 34.9520 5.2155 3.5726 40.4872 6.0341 -15.6624 10.9892 0.7909 23.7329 -11.2833 3.2286 -0.8119 0.0000 0.0000 0.0000 5.0307 3.8691 1.9476 4.2186 17.5013 6.8686 -1.6590 0.1442 -4.2922 0.0000 0.0000 -0.0000
0.5880 40.1178 -3.5342 -1.8069 -8.7002 -1.0168 0.0000 0.0000 0.0000 -0.8537 -2.5028 0.3760 -1.4212 -3.2612 3.1987 1.9879 -0.1608 -2.0209 0.0000 -0.0000 0.0000 0.0000 0.0000 0.0000 0.6020 -0.3983 -0.5741 2.4823 -0.9983 3.6291 -0.0000 0.0000 -0.0000 -0.1690 -0.0877 -7.3354 -0.0000 0.0000 -0.0000 -33.7974 -2.6638 2.4562 -44.0101 -16.9343 -17.8813 -9.8917 5.0240 51.7882 15.7794 -3.8522 -1.2287 -0.0000 0.0000 -0.0000 34.9477 5.2093 3.5698 40.6346 6.2169 -15.5072 11.0501 1.0455 23.2395 -11.7996 3.0878 -0.8374 0.0000 0.0000 0.0000 5.0684 3.8867 1.8979 4.2091 17.4528 6.8720 -1.6939 0.1464 -4.2841 0.0000 0.0000 -0.0000
0.5783 40.1178 -3.5563 -1.8113 -8.7252 -0.9853 0.0000 0.0000 0.0000 -0.8171 -2.4680 0.2822 -1.4356 -3.2668 3.2468 1.9669 -0.1595 -2.0041 0.0000 -0.0000 0.0000 0.0000 0.0000 0.0000 0.6602 -0.3458 -0.5210 2.4226 -0.9339 3.6369 -0.0000 0.0000 -0.0000 -0.1238 0.1185 -7.6204 -0.0000 0.0000 -0.0000 -33.7158 -2.6296 2.4376 -43.8702 -16.8636 -18.2357 -9.6884 5.0152 52.1447 15.6727 -3.7349 -1.2050 -0.0000 0.0000 -0.0000 34.8721 5.1875 3.5542 40.8057 6.4072 -15.5222 11.0238 1.1286 23.2420 -11.8027 2.9853 -0.8280 0.0000 0.0000 0.0000 5.1072 3.9217 1.8478 4.1721 17.4408 6.8486 -1.7314 0.1488 -4.2669 0.0000 0.0000 -0.0000
0.5718 40.1178 -3.5801 -1.8276 -8.7594 -0.9710 0.0000 0.0000 0.0000 -0.7830 -2.4492 0.2170 -1.4270 -3.2582 3.2688 1.9362 -0.1576 -1.9732 0.0000 -0.0000 0.0000 0.0000 0.0000 0.0000 0.7301 -0.2880 -0.4042 2.3897 -0.8693 3.6083 -0.0000 0.0000 -0.0000 -0.0434 0.2566 -7.8704 -0.0000 0.0000 -0.0000 -33.7580 -2.5897 2.4243 -43.6484 -16.8392 -18.4745 -9.5788 5.0110 52.3185 15.7095 -3.8024 -1.2166 -0.0000 0.0000 -0.0000 34.8011 5.1691 3.5404 40.9140 6.5191 -15.5764 10.9581 1.2526 23.5815 -11.4084 3.1633 -0.8154 0.0000 0.0000 0.0000 5.1484 3.9491 1.8168 4.1500 17.4409 6.8269 -1.7680 0.1512 -4.2417 0.0000 0.0000 -0.0000
